<?xml version="1.0" encoding="utf-8"?>
<!-- Generator: Adobe Illustrator 16.0.4, SVG Export Plug-In . SVG Version: 6.00 Build 0)  -->
<!DOCTYPE svg PUBLIC "-//W3C//DTD SVG 1.1//EN" "http://www.w3.org/Graphics/SVG/1.1/DTD/svg11.dtd">
<svg version="1.1" id="Layer_1" xmlns="http://www.w3.org/2000/svg" xmlns:xlink="http://www.w3.org/1999/xlink" x="0px" y="0px"
	 width="610.592px" height="610.58px" viewBox="1.408 14.92 610.592 610.58" enable-background="new 1.408 14.92 610.592 610.58"
	 xml:space="preserve">
<g>
	<path d="M513.492,625.5H99.909c-54.315,0-98.501-44.187-98.501-98.508V113.421c0-54.315,44.187-98.501,98.501-98.501h413.583
		c54.315,0,98.508,44.187,98.508,98.501v413.571C612,581.313,567.808,625.5,513.492,625.5z M99.909,71.726
		c-22.993,0-41.696,18.703-41.696,41.696v413.571c0,22.999,18.703,41.702,41.696,41.702h413.583
		c22.993,0,41.702-18.709,41.702-41.702V113.421c0-22.993-18.715-41.696-41.702-41.696H99.909z"/>
</g>
<polygon points="488.389,440.376 426.864,501.913 306.691,381.752 186.538,501.913 124.995,440.376 245.161,320.204 
	124.995,200.056 186.538,138.513 306.691,258.673 426.864,138.513 488.389,200.056 368.246,320.204 "/>
</svg>
