<svg xmlns="http://www.w3.org/2000/svg" xmlns:xlink="http://www.w3.org/1999/xlink" version="1.1" x="0px" y="0px" viewBox="0 0 24 30" style="enable-background:new 0 0 24 24;" xml:space="preserve"><g><path d="M15.986,4.597V3.458c0-0.942-0.766-1.708-1.708-1.708H9.722c-0.942,0-1.708,0.766-1.708,1.708v1.139H1.75v1.139h2.278   v13.667c0,1.57,1.277,2.847,2.847,2.847h10.25c1.57,0,2.847-1.277,2.847-2.847V5.736h2.278V4.597H15.986z M9.153,3.458   c0-0.314,0.255-0.569,0.569-0.569h4.556c0.314,0,0.569,0.255,0.569,0.569v1.139H9.153V3.458z M18.833,19.403   c0,0.942-0.766,1.708-1.708,1.708H6.875c-0.942,0-1.708-0.766-1.708-1.708V5.736h3.417h6.833h3.417V19.403z"/><rect x="11.431" y="8.014" width="1.139" height="10.819"/><rect x="14.847" y="8.014" width="1.139" height="10.819"/><rect x="8.014" y="8.014" width="1.139" height="10.819"/></g><text x="0" y="39" fill="#000000" font-size="5px" font-weight="bold" font-family="'Helvetica Neue', Helvetica, Arial-Unicode, Arial, Sans-serif">Created by Piola</text><text x="0" y="44" fill="#000000" font-size="5px" font-weight="bold" font-family="'Helvetica Neue', Helvetica, Arial-Unicode, Arial, Sans-serif">from the Noun Project</text></svg>